<?xml version="1.0" encoding="utf-8"?>
<!-- Generator: Adobe Illustrator 21.1.0, SVG Export Plug-In . SVG Version: 6.00 Build 0)  -->
<svg version="1.1" id="Layer_1" xmlns="http://www.w3.org/2000/svg" xmlns:xlink="http://www.w3.org/1999/xlink" x="0px" y="0px"
	 viewBox="0 0 375 588.5" style="enable-background:new 0 0 375 588.5;" xml:space="preserve">
<path d="M215.8,17.4l50.9,54.9l-53.8,53.8c-19.2-11-41.5-17.2-65.2-17.2c-72.9,0-132,59.1-132,132c0,61.5,42.1,113.2,99,127.9V439
	h-66v66h66v66h66v-66h66v-66h-66v-70.1c56.9-14.6,99-66.3,99-127.9c0-27-8.1-52.1-22-73.1l52.7-52.7l48.9,45.7V17.4H215.8z
	 M147.7,323.5c-45.5,0-82.5-37-82.5-82.5s37-82.5,82.5-82.5s82.5,37,82.5,82.5S193.2,323.5,147.7,323.5z"/>
</svg>
